# xmcd
#
# Track frame offsets: 
#        150
#        16064
#        40010
#        52602
#        77684
#
# Disc length: 1623 seconds
#
# Revision: 0
# Processed by: cddbd v1.5.2PL0 Copyright (c) Steve Scherf et al.
# Submitted via: ExactAudioCopy v0.99pb5
#
DISCID=25065505
DTITLE=Slagmaur - Svin
DYEAR=2006
DGENRE=Black Metal
TTITLE0=Nekk Brekk Suport
TTITLE1=Skrell skjaer svin
TTITLE2=Skrekk slegg slag
TTITLE3=Geng them Høyt
TTITLE4=Will sher svain
EXTD=
EXTT0=
EXTT1=
EXTT2=
EXTT3=
EXTT4=
PLAYORDER=
